<mxfile host="app.diagrams.net" agent="Mozilla/5.0 (Windows NT 10.0; Win64; x64) AppleWebKit/537.36 (KHTML, like Gecko) Chrome/129.0.0.0 Safari/537.36 Edg/129.0.0.0" version="24.7.17">
  <diagram name="Page-1" id="oiHvYSJ3vp_K4KXR22Bx">
    <mxGraphModel dx="1426" dy="1891" grid="1" gridSize="10" guides="1" tooltips="1" connect="1" arrows="1" fold="1" page="1" pageScale="1" pageWidth="850" pageHeight="1100" math="0" shadow="0">
      <root>
        <mxCell id="0" />
        <mxCell id="1" parent="0" />
        <mxCell id="5IB24PS56uw0C7XpBxDY-2" value="" style="rounded=0;whiteSpace=wrap;html=1;labelBackgroundColor=none;fillColor=#fad9d5;strokeColor=#ae4132;" parent="1" vertex="1">
          <mxGeometry x="160" y="340" width="120" height="60" as="geometry" />
        </mxCell>
        <mxCell id="91_PlL7ZlXS78ttUMX1h-10" value="" style="edgeStyle=orthogonalEdgeStyle;rounded=0;orthogonalLoop=1;jettySize=auto;html=1;exitX=0;exitY=0.5;exitDx=0;exitDy=0;entryX=1;entryY=0.5;entryDx=0;entryDy=0;" edge="1" parent="1" source="91_PlL7ZlXS78ttUMX1h-9" target="5IB24PS56uw0C7XpBxDY-3">
          <mxGeometry relative="1" as="geometry">
            <mxPoint x="790" y="320" as="targetPoint" />
          </mxGeometry>
        </mxCell>
        <mxCell id="5IB24PS56uw0C7XpBxDY-3" value="" style="rounded=0;whiteSpace=wrap;html=1;labelBackgroundColor=none;fillColor=#fad9d5;strokeColor=#ae4132;" parent="1" vertex="1">
          <mxGeometry x="610" y="345" width="120" height="60" as="geometry" />
        </mxCell>
        <mxCell id="5IB24PS56uw0C7XpBxDY-5" value="" style="endArrow=classic;html=1;rounded=0;labelBackgroundColor=none;fontColor=default;entryX=0;entryY=0.5;entryDx=0;entryDy=0;" parent="1" target="5IB24PS56uw0C7XpBxDY-3" edge="1">
          <mxGeometry width="50" height="50" relative="1" as="geometry">
            <mxPoint x="510" y="375" as="sourcePoint" />
            <mxPoint x="640" y="89.5" as="targetPoint" />
          </mxGeometry>
        </mxCell>
        <mxCell id="5IB24PS56uw0C7XpBxDY-10" value="" style="endArrow=classic;html=1;rounded=0;entryX=0.992;entryY=0.65;entryDx=0;entryDy=0;entryPerimeter=0;exitX=0;exitY=0.5;exitDx=0;exitDy=0;" parent="1" source="5IB24PS56uw0C7XpBxDY-14" target="5IB24PS56uw0C7XpBxDY-2" edge="1">
          <mxGeometry width="50" height="50" relative="1" as="geometry">
            <mxPoint x="380" y="89.5" as="sourcePoint" />
            <mxPoint x="280" y="89.5" as="targetPoint" />
          </mxGeometry>
        </mxCell>
        <mxCell id="5IB24PS56uw0C7XpBxDY-14" value="" style="rhombus;whiteSpace=wrap;html=1;fillColor=#b1ddf0;strokeColor=#10739e;" parent="1" vertex="1">
          <mxGeometry x="390" y="320" width="115" height="112.5" as="geometry" />
        </mxCell>
        <mxCell id="5IB24PS56uw0C7XpBxDY-15" value="" style="endArrow=classic;html=1;rounded=0;exitX=1;exitY=0.5;exitDx=0;exitDy=0;" parent="1" source="5IB24PS56uw0C7XpBxDY-14" edge="1">
          <mxGeometry width="50" height="50" relative="1" as="geometry">
            <mxPoint x="510" y="375" as="sourcePoint" />
            <mxPoint x="590" y="375" as="targetPoint" />
          </mxGeometry>
        </mxCell>
        <mxCell id="5IB24PS56uw0C7XpBxDY-17" value="Gyártás&lt;div&gt;&lt;br&gt;&lt;/div&gt;" style="text;html=1;align=center;verticalAlign=middle;whiteSpace=wrap;rounded=0;" parent="1" vertex="1">
          <mxGeometry x="417.5" y="370" width="60" height="30" as="geometry" />
        </mxCell>
        <mxCell id="5IB24PS56uw0C7XpBxDY-30" value="" style="ellipse;whiteSpace=wrap;html=1;fillColor=#d0cee2;strokeColor=#56517e;" parent="1" vertex="1">
          <mxGeometry x="725" y="490" width="110" height="70" as="geometry" />
        </mxCell>
        <mxCell id="5IB24PS56uw0C7XpBxDY-31" value="" style="ellipse;whiteSpace=wrap;html=1;fillColor=#d0cee2;strokeColor=#56517e;" parent="1" vertex="1">
          <mxGeometry x="140" y="490" width="110" height="70" as="geometry" />
        </mxCell>
        <mxCell id="5IB24PS56uw0C7XpBxDY-32" value="" style="ellipse;whiteSpace=wrap;html=1;fillColor=#d0cee2;strokeColor=#56517e;" parent="1" vertex="1">
          <mxGeometry x="560" y="490" width="110" height="70" as="geometry" />
        </mxCell>
        <mxCell id="5IB24PS56uw0C7XpBxDY-33" value="" style="ellipse;whiteSpace=wrap;html=1;fillColor=#d0cee2;strokeColor=#56517e;" parent="1" vertex="1">
          <mxGeometry x="425" y="490" width="110" height="70" as="geometry" />
        </mxCell>
        <mxCell id="5IB24PS56uw0C7XpBxDY-34" value="" style="ellipse;whiteSpace=wrap;html=1;fillColor=#d0cee2;strokeColor=#56517e;" parent="1" vertex="1">
          <mxGeometry x="270" y="490" width="120" height="70" as="geometry" />
        </mxCell>
        <mxCell id="5IB24PS56uw0C7XpBxDY-35" value="" style="ellipse;whiteSpace=wrap;html=1;fillColor=#d0cee2;strokeColor=#56517e;" parent="1" vertex="1">
          <mxGeometry x="10" y="490" width="110" height="70" as="geometry" />
        </mxCell>
        <mxCell id="5IB24PS56uw0C7XpBxDY-36" value="tkód&lt;div&gt;&lt;br&gt;&lt;/div&gt;" style="text;html=1;align=center;verticalAlign=middle;whiteSpace=wrap;rounded=0;strokeColor=none;" parent="1" vertex="1">
          <mxGeometry x="585" y="520" width="60" height="30" as="geometry" />
        </mxCell>
        <mxCell id="5IB24PS56uw0C7XpBxDY-37" value="név" style="text;html=1;align=center;verticalAlign=middle;whiteSpace=wrap;rounded=0;" parent="1" vertex="1">
          <mxGeometry x="450" y="510" width="60" height="30" as="geometry" />
        </mxCell>
        <mxCell id="5IB24PS56uw0C7XpBxDY-38" value="ear&lt;div&gt;&lt;br&gt;&lt;/div&gt;" style="text;html=1;align=center;verticalAlign=middle;whiteSpace=wrap;rounded=0;" parent="1" vertex="1">
          <mxGeometry x="750" y="510" width="60" height="30" as="geometry" />
        </mxCell>
        <mxCell id="5IB24PS56uw0C7XpBxDY-39" value="adószám" style="text;html=1;align=center;verticalAlign=middle;whiteSpace=wrap;rounded=0;" parent="1" vertex="1">
          <mxGeometry x="165" y="510" width="60" height="30" as="geometry" />
        </mxCell>
        <mxCell id="5IB24PS56uw0C7XpBxDY-40" value="név&lt;div&gt;&lt;br&gt;&lt;/div&gt;" style="text;html=1;align=center;verticalAlign=middle;whiteSpace=wrap;rounded=0;" parent="1" vertex="1">
          <mxGeometry x="40" y="510" width="60" height="30" as="geometry" />
        </mxCell>
        <mxCell id="5IB24PS56uw0C7XpBxDY-41" value="telephely" style="text;html=1;align=center;verticalAlign=middle;whiteSpace=wrap;rounded=0;" parent="1" vertex="1">
          <mxGeometry x="300" y="510" width="60" height="30" as="geometry" />
        </mxCell>
        <mxCell id="5IB24PS56uw0C7XpBxDY-46" value="" style="endArrow=none;html=1;rounded=0;exitX=0.209;exitY=0.086;exitDx=0;exitDy=0;exitPerimeter=0;entryX=0.5;entryY=1;entryDx=0;entryDy=0;" parent="1" source="5IB24PS56uw0C7XpBxDY-34" target="5IB24PS56uw0C7XpBxDY-2" edge="1">
          <mxGeometry width="50" height="50" relative="1" as="geometry">
            <mxPoint x="400" y="330" as="sourcePoint" />
            <mxPoint x="213" y="400" as="targetPoint" />
          </mxGeometry>
        </mxCell>
        <mxCell id="5IB24PS56uw0C7XpBxDY-47" value="" style="endArrow=none;html=1;rounded=0;exitX=0.5;exitY=1;exitDx=0;exitDy=0;" parent="1" source="5IB24PS56uw0C7XpBxDY-3" target="5IB24PS56uw0C7XpBxDY-33" edge="1">
          <mxGeometry width="50" height="50" relative="1" as="geometry">
            <mxPoint x="700" y="120" as="sourcePoint" />
            <mxPoint x="450" y="280" as="targetPoint" />
          </mxGeometry>
        </mxCell>
        <mxCell id="5IB24PS56uw0C7XpBxDY-50" value="" style="endArrow=none;html=1;rounded=0;entryX=0.5;entryY=0;entryDx=0;entryDy=0;exitX=0.5;exitY=1;exitDx=0;exitDy=0;" parent="1" source="5IB24PS56uw0C7XpBxDY-3" target="5IB24PS56uw0C7XpBxDY-32" edge="1">
          <mxGeometry width="50" height="50" relative="1" as="geometry">
            <mxPoint x="630" y="340" as="sourcePoint" />
            <mxPoint x="450" y="280" as="targetPoint" />
          </mxGeometry>
        </mxCell>
        <mxCell id="5IB24PS56uw0C7XpBxDY-51" value="" style="endArrow=none;html=1;rounded=0;entryX=0.5;entryY=0;entryDx=0;entryDy=0;exitX=0.5;exitY=1;exitDx=0;exitDy=0;" parent="1" source="5IB24PS56uw0C7XpBxDY-3" target="5IB24PS56uw0C7XpBxDY-30" edge="1">
          <mxGeometry width="50" height="50" relative="1" as="geometry">
            <mxPoint x="670" y="410" as="sourcePoint" />
            <mxPoint x="450" y="280" as="targetPoint" />
            <Array as="points" />
          </mxGeometry>
        </mxCell>
        <mxCell id="5IB24PS56uw0C7XpBxDY-52" value="" style="endArrow=none;html=1;rounded=0;entryX=0.5;entryY=0;entryDx=0;entryDy=0;" parent="1" target="5IB24PS56uw0C7XpBxDY-31" edge="1">
          <mxGeometry width="50" height="50" relative="1" as="geometry">
            <mxPoint x="220" y="400" as="sourcePoint" />
            <mxPoint x="173" y="350" as="targetPoint" />
          </mxGeometry>
        </mxCell>
        <mxCell id="5IB24PS56uw0C7XpBxDY-53" value="" style="endArrow=none;html=1;rounded=0;entryX=0.5;entryY=0;entryDx=0;entryDy=0;exitX=0.5;exitY=1;exitDx=0;exitDy=0;" parent="1" source="5IB24PS56uw0C7XpBxDY-2" target="5IB24PS56uw0C7XpBxDY-35" edge="1">
          <mxGeometry width="50" height="50" relative="1" as="geometry">
            <mxPoint x="220" y="404" as="sourcePoint" />
            <mxPoint x="450" y="280" as="targetPoint" />
          </mxGeometry>
        </mxCell>
        <mxCell id="5IB24PS56uw0C7XpBxDY-54" value="Gyártó" style="text;html=1;align=center;verticalAlign=middle;whiteSpace=wrap;rounded=0;" parent="1" vertex="1">
          <mxGeometry x="190" y="355" width="60" height="30" as="geometry" />
        </mxCell>
        <mxCell id="5IB24PS56uw0C7XpBxDY-55" value="Termék" style="text;html=1;align=center;verticalAlign=middle;whiteSpace=wrap;rounded=0;" parent="1" vertex="1">
          <mxGeometry x="640" y="360" width="60" height="30" as="geometry" />
        </mxCell>
        <mxCell id="5IB24PS56uw0C7XpBxDY-59" value="" style="ellipse;whiteSpace=wrap;html=1;fillColor=#e1d5e7;strokeColor=#9673a6;" parent="1" vertex="1">
          <mxGeometry x="180" y="210" width="120" height="75" as="geometry" />
        </mxCell>
        <mxCell id="5IB24PS56uw0C7XpBxDY-60" value="Postai cím" style="text;html=1;align=center;verticalAlign=middle;whiteSpace=wrap;rounded=0;" parent="1" vertex="1">
          <mxGeometry x="210" y="235" width="60" height="30" as="geometry" />
        </mxCell>
        <mxCell id="5IB24PS56uw0C7XpBxDY-63" value="" style="ellipse;whiteSpace=wrap;html=1;fillColor=#e1d5e7;strokeColor=#9673a6;" parent="1" vertex="1">
          <mxGeometry x="15" y="105" width="110" height="60" as="geometry" />
        </mxCell>
        <mxCell id="5IB24PS56uw0C7XpBxDY-65" value="" style="ellipse;whiteSpace=wrap;html=1;fillColor=#e1d5e7;strokeColor=#9673a6;" parent="1" vertex="1">
          <mxGeometry x="290" y="105" width="110" height="60" as="geometry" />
        </mxCell>
        <mxCell id="5IB24PS56uw0C7XpBxDY-66" value="" style="ellipse;whiteSpace=wrap;html=1;fillColor=#e1d5e7;strokeColor=#9673a6;" parent="1" vertex="1">
          <mxGeometry x="160" y="105" width="110" height="60" as="geometry" />
        </mxCell>
        <mxCell id="5IB24PS56uw0C7XpBxDY-75" value="" style="endArrow=none;html=1;rounded=0;entryX=0.5;entryY=1;entryDx=0;entryDy=0;exitX=0.567;exitY=0;exitDx=0;exitDy=0;exitPerimeter=0;" parent="1" source="5IB24PS56uw0C7XpBxDY-2" target="5IB24PS56uw0C7XpBxDY-59" edge="1">
          <mxGeometry width="50" height="50" relative="1" as="geometry">
            <mxPoint x="400" y="380" as="sourcePoint" />
            <mxPoint x="450" y="330" as="targetPoint" />
          </mxGeometry>
        </mxCell>
        <mxCell id="5IB24PS56uw0C7XpBxDY-76" value="Házszám" style="text;html=1;align=center;verticalAlign=middle;whiteSpace=wrap;rounded=0;" parent="1" vertex="1">
          <mxGeometry x="185" y="120" width="60" height="30" as="geometry" />
        </mxCell>
        <mxCell id="5IB24PS56uw0C7XpBxDY-77" value="Város" style="text;html=1;align=center;verticalAlign=middle;whiteSpace=wrap;rounded=0;" parent="1" vertex="1">
          <mxGeometry x="315" y="120" width="60" height="30" as="geometry" />
        </mxCell>
        <mxCell id="5IB24PS56uw0C7XpBxDY-78" value="Utca" style="text;html=1;align=center;verticalAlign=middle;whiteSpace=wrap;rounded=0;" parent="1" vertex="1">
          <mxGeometry x="40" y="120" width="60" height="30" as="geometry" />
        </mxCell>
        <mxCell id="5IB24PS56uw0C7XpBxDY-79" value="" style="endArrow=none;html=1;rounded=0;entryX=0.409;entryY=0.983;entryDx=0;entryDy=0;entryPerimeter=0;exitX=0.5;exitY=0;exitDx=0;exitDy=0;" parent="1" source="5IB24PS56uw0C7XpBxDY-59" target="5IB24PS56uw0C7XpBxDY-65" edge="1">
          <mxGeometry width="50" height="50" relative="1" as="geometry">
            <mxPoint x="400" y="380" as="sourcePoint" />
            <mxPoint x="450" y="330" as="targetPoint" />
          </mxGeometry>
        </mxCell>
        <mxCell id="5IB24PS56uw0C7XpBxDY-81" value="" style="endArrow=none;html=1;rounded=0;entryX=0.573;entryY=1.033;entryDx=0;entryDy=0;entryPerimeter=0;exitX=0.5;exitY=0;exitDx=0;exitDy=0;" parent="1" source="5IB24PS56uw0C7XpBxDY-59" target="5IB24PS56uw0C7XpBxDY-63" edge="1">
          <mxGeometry width="50" height="50" relative="1" as="geometry">
            <mxPoint x="400" y="380" as="sourcePoint" />
            <mxPoint x="450" y="330" as="targetPoint" />
          </mxGeometry>
        </mxCell>
        <mxCell id="5IB24PS56uw0C7XpBxDY-82" value="" style="endArrow=none;html=1;rounded=0;entryX=0.5;entryY=1;entryDx=0;entryDy=0;exitX=0.5;exitY=0;exitDx=0;exitDy=0;" parent="1" source="5IB24PS56uw0C7XpBxDY-59" target="5IB24PS56uw0C7XpBxDY-66" edge="1">
          <mxGeometry width="50" height="50" relative="1" as="geometry">
            <mxPoint x="400" y="380" as="sourcePoint" />
            <mxPoint x="450" y="330" as="targetPoint" />
          </mxGeometry>
        </mxCell>
        <mxCell id="5IB24PS56uw0C7XpBxDY-86" value="" style="ellipse;whiteSpace=wrap;html=1;fillColor=#e1d5e7;strokeColor=#9673a6;" parent="1" vertex="1">
          <mxGeometry x="417.5" y="105" width="110" height="60" as="geometry" />
        </mxCell>
        <mxCell id="5IB24PS56uw0C7XpBxDY-87" value="" style="endArrow=none;html=1;rounded=0;entryX=0.027;entryY=0.717;entryDx=0;entryDy=0;entryPerimeter=0;exitX=0.5;exitY=0;exitDx=0;exitDy=0;" parent="1" source="5IB24PS56uw0C7XpBxDY-59" target="5IB24PS56uw0C7XpBxDY-86" edge="1">
          <mxGeometry width="50" height="50" relative="1" as="geometry">
            <mxPoint x="400" y="380" as="sourcePoint" />
            <mxPoint x="450" y="330" as="targetPoint" />
          </mxGeometry>
        </mxCell>
        <mxCell id="5IB24PS56uw0C7XpBxDY-89" value="Irányítószám" style="text;html=1;align=center;verticalAlign=middle;whiteSpace=wrap;rounded=0;" parent="1" vertex="1">
          <mxGeometry x="442.5" y="120" width="60" height="30" as="geometry" />
        </mxCell>
        <mxCell id="5IB24PS56uw0C7XpBxDY-98" value="" style="ellipse;whiteSpace=wrap;html=1;fillColor=#d0cee2;strokeColor=#56517e;" parent="1" vertex="1">
          <mxGeometry x="422.5" y="210" width="125" height="80" as="geometry" />
        </mxCell>
        <mxCell id="5IB24PS56uw0C7XpBxDY-99" value="" style="ellipse;whiteSpace=wrap;html=1;fillColor=#e1d5e7;strokeColor=#9673a6;" parent="1" vertex="1">
          <mxGeometry x="430" y="217.5" width="110" height="65" as="geometry" />
        </mxCell>
        <mxCell id="5IB24PS56uw0C7XpBxDY-100" value="egység_db" style="text;html=1;align=center;verticalAlign=middle;whiteSpace=wrap;rounded=0;" parent="1" vertex="1">
          <mxGeometry x="460" y="235" width="60" height="30" as="geometry" />
        </mxCell>
        <mxCell id="5IB24PS56uw0C7XpBxDY-103" value="" style="endArrow=none;html=1;rounded=0;entryX=0.567;entryY=0;entryDx=0;entryDy=0;entryPerimeter=0;exitX=1;exitY=1;exitDx=0;exitDy=0;" parent="1" source="5IB24PS56uw0C7XpBxDY-98" target="5IB24PS56uw0C7XpBxDY-3" edge="1">
          <mxGeometry width="50" height="50" relative="1" as="geometry">
            <mxPoint x="540" y="300" as="sourcePoint" />
            <mxPoint x="450" y="330" as="targetPoint" />
          </mxGeometry>
        </mxCell>
        <mxCell id="5IB24PS56uw0C7XpBxDY-104" value="" style="rhombus;whiteSpace=wrap;html=1;fillColor=#b1ddf0;strokeColor=#10739e;" parent="1" vertex="1">
          <mxGeometry x="625" y="112.5" width="105" height="97.5" as="geometry" />
        </mxCell>
        <mxCell id="5IB24PS56uw0C7XpBxDY-105" value="" style="endArrow=classic;html=1;rounded=0;entryX=0.567;entryY=0;entryDx=0;entryDy=0;entryPerimeter=0;exitX=0.5;exitY=1;exitDx=0;exitDy=0;" parent="1" source="5IB24PS56uw0C7XpBxDY-104" target="5IB24PS56uw0C7XpBxDY-3" edge="1">
          <mxGeometry width="50" height="50" relative="1" as="geometry">
            <mxPoint x="400" y="380" as="sourcePoint" />
            <mxPoint x="450" y="330" as="targetPoint" />
          </mxGeometry>
        </mxCell>
        <mxCell id="5IB24PS56uw0C7XpBxDY-107" value="" style="endArrow=classic;html=1;rounded=0;" parent="1" edge="1">
          <mxGeometry width="50" height="50" relative="1" as="geometry">
            <mxPoint x="676" y="290" as="sourcePoint" />
            <mxPoint x="676" y="330" as="targetPoint" />
          </mxGeometry>
        </mxCell>
        <mxCell id="5IB24PS56uw0C7XpBxDY-109" value="" style="endArrow=classic;html=1;rounded=0;exitX=0.5;exitY=0;exitDx=0;exitDy=0;entryX=0.5;entryY=1;entryDx=0;entryDy=0;" parent="1" source="5IB24PS56uw0C7XpBxDY-104" target="5IB24PS56uw0C7XpBxDY-113" edge="1">
          <mxGeometry width="50" height="50" relative="1" as="geometry">
            <mxPoint x="400" y="380" as="sourcePoint" />
            <mxPoint x="675" y="-10" as="targetPoint" />
          </mxGeometry>
        </mxCell>
        <mxCell id="5IB24PS56uw0C7XpBxDY-110" value="" style="endArrow=classic;html=1;rounded=0;exitX=0.5;exitY=0;exitDx=0;exitDy=0;" parent="1" source="5IB24PS56uw0C7XpBxDY-104" edge="1">
          <mxGeometry width="50" height="50" relative="1" as="geometry">
            <mxPoint x="676" y="192.5" as="sourcePoint" />
            <mxPoint x="676" y="10" as="targetPoint" />
          </mxGeometry>
        </mxCell>
        <mxCell id="5IB24PS56uw0C7XpBxDY-113" value="" style="rounded=0;whiteSpace=wrap;html=1;labelBackgroundColor=none;fillColor=#fad9d5;strokeColor=#ae4132;" parent="1" vertex="1">
          <mxGeometry x="615" y="-80" width="120" height="60" as="geometry" />
        </mxCell>
        <mxCell id="5IB24PS56uw0C7XpBxDY-114" value="Alkatrész" style="text;html=1;align=center;verticalAlign=middle;whiteSpace=wrap;rounded=0;" parent="1" vertex="1">
          <mxGeometry x="645" y="-65" width="60" height="30" as="geometry" />
        </mxCell>
        <mxCell id="5IB24PS56uw0C7XpBxDY-115" value="" style="endArrow=none;html=1;rounded=0;entryX=0.5;entryY=0;entryDx=0;entryDy=0;exitX=0.558;exitY=1;exitDx=0;exitDy=0;exitPerimeter=0;" parent="1" source="5IB24PS56uw0C7XpBxDY-119" target="5IB24PS56uw0C7XpBxDY-113" edge="1">
          <mxGeometry width="50" height="50" relative="1" as="geometry">
            <mxPoint x="675" y="-170" as="sourcePoint" />
            <mxPoint x="460" y="30" as="targetPoint" />
          </mxGeometry>
        </mxCell>
        <mxCell id="5IB24PS56uw0C7XpBxDY-116" value="" style="endArrow=none;html=1;rounded=0;entryX=0.5;entryY=0;entryDx=0;entryDy=0;exitX=0.971;exitY=0.617;exitDx=0;exitDy=0;exitPerimeter=0;" parent="1" source="5IB24PS56uw0C7XpBxDY-117" target="5IB24PS56uw0C7XpBxDY-113" edge="1">
          <mxGeometry width="50" height="50" relative="1" as="geometry">
            <mxPoint x="550" y="-130" as="sourcePoint" />
            <mxPoint x="460" y="30" as="targetPoint" />
          </mxGeometry>
        </mxCell>
        <mxCell id="5IB24PS56uw0C7XpBxDY-117" value="" style="ellipse;whiteSpace=wrap;html=1;fillColor=#d0cee2;strokeColor=#56517e;" parent="1" vertex="1">
          <mxGeometry x="352.5" y="-180" width="120" height="60" as="geometry" />
        </mxCell>
        <mxCell id="5IB24PS56uw0C7XpBxDY-118" value="Név" style="text;html=1;align=center;verticalAlign=middle;whiteSpace=wrap;rounded=0;" parent="1" vertex="1">
          <mxGeometry x="382.5" y="-165" width="60" height="30" as="geometry" />
        </mxCell>
        <mxCell id="5IB24PS56uw0C7XpBxDY-119" value="" style="ellipse;whiteSpace=wrap;html=1;fillColor=#d0cee2;strokeColor=#56517e;" parent="1" vertex="1">
          <mxGeometry x="525" y="-180" width="120" height="60" as="geometry" />
        </mxCell>
        <mxCell id="5IB24PS56uw0C7XpBxDY-120" value="akód" style="text;html=1;align=center;verticalAlign=middle;whiteSpace=wrap;rounded=0;" parent="1" vertex="1">
          <mxGeometry x="555" y="-165" width="60" height="30" as="geometry" />
        </mxCell>
        <mxCell id="5IB24PS56uw0C7XpBxDY-121" value="" style="endArrow=none;html=1;rounded=0;entryX=0.5;entryY=0;entryDx=0;entryDy=0;" parent="1" target="5IB24PS56uw0C7XpBxDY-113" edge="1">
          <mxGeometry width="50" height="50" relative="1" as="geometry">
            <mxPoint x="750" y="-130" as="sourcePoint" />
            <mxPoint x="460" y="30" as="targetPoint" />
          </mxGeometry>
        </mxCell>
        <mxCell id="5IB24PS56uw0C7XpBxDY-122" value="" style="ellipse;whiteSpace=wrap;html=1;fillColor=#d0cee2;strokeColor=#56517e;" parent="1" vertex="1">
          <mxGeometry x="690" y="-180" width="120" height="60" as="geometry" />
        </mxCell>
        <mxCell id="5IB24PS56uw0C7XpBxDY-123" value="Kategória" style="text;html=1;align=center;verticalAlign=middle;whiteSpace=wrap;rounded=0;" parent="1" vertex="1">
          <mxGeometry x="720" y="-165" width="60" height="30" as="geometry" />
        </mxCell>
        <mxCell id="5IB24PS56uw0C7XpBxDY-124" value="Összerakás" style="text;html=1;align=center;verticalAlign=middle;whiteSpace=wrap;rounded=0;" parent="1" vertex="1">
          <mxGeometry x="647.5" y="146.25" width="60" height="30" as="geometry" />
        </mxCell>
        <mxCell id="91_PlL7ZlXS78ttUMX1h-2" value="" style="endArrow=none;html=1;rounded=0;entryX=1;entryY=1;entryDx=0;entryDy=0;exitX=0;exitY=1;exitDx=0;exitDy=0;" edge="1" parent="1" source="5IB24PS56uw0C7XpBxDY-39" target="5IB24PS56uw0C7XpBxDY-39">
          <mxGeometry width="50" height="50" relative="1" as="geometry">
            <mxPoint x="400" y="380" as="sourcePoint" />
            <mxPoint x="450" y="330" as="targetPoint" />
          </mxGeometry>
        </mxCell>
        <mxCell id="91_PlL7ZlXS78ttUMX1h-3" value="" style="endArrow=none;html=1;rounded=0;entryX=1;entryY=0.75;entryDx=0;entryDy=0;exitX=0;exitY=0.75;exitDx=0;exitDy=0;" edge="1" parent="1" source="5IB24PS56uw0C7XpBxDY-36" target="5IB24PS56uw0C7XpBxDY-36">
          <mxGeometry width="50" height="50" relative="1" as="geometry">
            <mxPoint x="400" y="380" as="sourcePoint" />
            <mxPoint x="450" y="330" as="targetPoint" />
          </mxGeometry>
        </mxCell>
        <mxCell id="91_PlL7ZlXS78ttUMX1h-5" value="" style="endArrow=none;html=1;rounded=0;entryX=1;entryY=1;entryDx=0;entryDy=0;exitX=0;exitY=1;exitDx=0;exitDy=0;" edge="1" parent="1" source="5IB24PS56uw0C7XpBxDY-120" target="5IB24PS56uw0C7XpBxDY-120">
          <mxGeometry width="50" height="50" relative="1" as="geometry">
            <mxPoint x="400" y="380" as="sourcePoint" />
            <mxPoint x="450" y="330" as="targetPoint" />
          </mxGeometry>
        </mxCell>
        <mxCell id="91_PlL7ZlXS78ttUMX1h-13" value="" style="edgeStyle=orthogonalEdgeStyle;rounded=0;orthogonalLoop=1;jettySize=auto;html=1;entryX=0;entryY=0.5;entryDx=0;entryDy=0;" edge="1" parent="1" source="91_PlL7ZlXS78ttUMX1h-9" target="91_PlL7ZlXS78ttUMX1h-12">
          <mxGeometry relative="1" as="geometry" />
        </mxCell>
        <mxCell id="91_PlL7ZlXS78ttUMX1h-9" value="&lt;u&gt;TR&lt;/u&gt;" style="rhombus;whiteSpace=wrap;html=1;fillColor=#b1ddf0;strokeColor=#000000;rounded=0;labelBackgroundColor=none;strokeWidth=1;" vertex="1" parent="1">
          <mxGeometry x="820" y="322.5" width="110" height="105" as="geometry" />
        </mxCell>
        <mxCell id="91_PlL7ZlXS78ttUMX1h-31" value="" style="edgeStyle=orthogonalEdgeStyle;rounded=0;orthogonalLoop=1;jettySize=auto;html=1;endArrow=none;endFill=0;startArrow=classic;startFill=1;" edge="1" parent="1" source="91_PlL7ZlXS78ttUMX1h-12" target="91_PlL7ZlXS78ttUMX1h-30">
          <mxGeometry relative="1" as="geometry" />
        </mxCell>
        <mxCell id="91_PlL7ZlXS78ttUMX1h-38" value="" style="edgeStyle=orthogonalEdgeStyle;rounded=0;orthogonalLoop=1;jettySize=auto;html=1;endArrow=none;endFill=0;" edge="1" parent="1" source="91_PlL7ZlXS78ttUMX1h-12" target="91_PlL7ZlXS78ttUMX1h-37">
          <mxGeometry relative="1" as="geometry" />
        </mxCell>
        <mxCell id="91_PlL7ZlXS78ttUMX1h-12" value="" style="whiteSpace=wrap;html=1;fillColor=#fad9d5;strokeColor=#ae4132;rounded=0;labelBackgroundColor=none;" vertex="1" parent="1">
          <mxGeometry x="1040" y="345" width="120" height="60" as="geometry" />
        </mxCell>
        <mxCell id="91_PlL7ZlXS78ttUMX1h-14" value="Rendelés" style="text;html=1;align=center;verticalAlign=middle;whiteSpace=wrap;rounded=0;" vertex="1" parent="1">
          <mxGeometry x="1070" y="360" width="60" height="30" as="geometry" />
        </mxCell>
        <mxCell id="91_PlL7ZlXS78ttUMX1h-21" value="ár" style="ellipse;whiteSpace=wrap;html=1;fillColor=#d0cee2;strokeColor=#56517e;rounded=0;labelBackgroundColor=none;dashed=1;" vertex="1" parent="1">
          <mxGeometry x="1042.5" y="495" width="115" height="60" as="geometry" />
        </mxCell>
        <mxCell id="91_PlL7ZlXS78ttUMX1h-22" value="" style="endArrow=none;html=1;rounded=0;entryX=0.5;entryY=1;entryDx=0;entryDy=0;exitX=0.5;exitY=0;exitDx=0;exitDy=0;" edge="1" parent="1" source="91_PlL7ZlXS78ttUMX1h-21" target="91_PlL7ZlXS78ttUMX1h-12">
          <mxGeometry width="50" height="50" relative="1" as="geometry">
            <mxPoint x="770" y="570" as="sourcePoint" />
            <mxPoint x="820" y="520" as="targetPoint" />
          </mxGeometry>
        </mxCell>
        <mxCell id="91_PlL7ZlXS78ttUMX1h-23" value="darabszámok" style="ellipse;whiteSpace=wrap;html=1;fillColor=#d0cee2;strokeColor=#56517e;rounded=0;labelBackgroundColor=none;" vertex="1" parent="1">
          <mxGeometry x="1200" y="495" width="115" height="60" as="geometry" />
        </mxCell>
        <mxCell id="91_PlL7ZlXS78ttUMX1h-24" value="" style="endArrow=none;html=1;rounded=0;entryX=0.5;entryY=1;entryDx=0;entryDy=0;exitX=0.5;exitY=0;exitDx=0;exitDy=0;" edge="1" parent="1" source="91_PlL7ZlXS78ttUMX1h-23" target="91_PlL7ZlXS78ttUMX1h-12">
          <mxGeometry width="50" height="50" relative="1" as="geometry">
            <mxPoint x="770" y="570" as="sourcePoint" />
            <mxPoint x="820" y="520" as="targetPoint" />
          </mxGeometry>
        </mxCell>
        <mxCell id="91_PlL7ZlXS78ttUMX1h-25" value="dátumok" style="ellipse;whiteSpace=wrap;html=1;fillColor=#d0cee2;strokeColor=#56517e;rounded=0;labelBackgroundColor=none;" vertex="1" parent="1">
          <mxGeometry x="900" y="495" width="115" height="60" as="geometry" />
        </mxCell>
        <mxCell id="91_PlL7ZlXS78ttUMX1h-26" value="" style="endArrow=none;html=1;rounded=0;entryX=0.5;entryY=1;entryDx=0;entryDy=0;exitX=0.5;exitY=0;exitDx=0;exitDy=0;" edge="1" parent="1" source="91_PlL7ZlXS78ttUMX1h-25" target="91_PlL7ZlXS78ttUMX1h-12">
          <mxGeometry width="50" height="50" relative="1" as="geometry">
            <mxPoint x="770" y="570" as="sourcePoint" />
            <mxPoint x="820" y="520" as="targetPoint" />
          </mxGeometry>
        </mxCell>
        <mxCell id="91_PlL7ZlXS78ttUMX1h-35" value="" style="edgeStyle=orthogonalEdgeStyle;rounded=0;orthogonalLoop=1;jettySize=auto;html=1;startArrow=none;startFill=0;endArrow=classic;endFill=1;" edge="1" parent="1" source="91_PlL7ZlXS78ttUMX1h-30" target="91_PlL7ZlXS78ttUMX1h-34">
          <mxGeometry relative="1" as="geometry" />
        </mxCell>
        <mxCell id="91_PlL7ZlXS78ttUMX1h-30" value="RV" style="rhombus;whiteSpace=wrap;html=1;fillColor=#b1ddf0;strokeColor=#10739e;rounded=0;labelBackgroundColor=none;" vertex="1" parent="1">
          <mxGeometry x="1050" y="112.5" width="100" height="95" as="geometry" />
        </mxCell>
        <mxCell id="91_PlL7ZlXS78ttUMX1h-40" value="" style="edgeStyle=orthogonalEdgeStyle;rounded=0;orthogonalLoop=1;jettySize=auto;html=1;endArrow=none;endFill=0;" edge="1" parent="1" source="91_PlL7ZlXS78ttUMX1h-34" target="91_PlL7ZlXS78ttUMX1h-44">
          <mxGeometry relative="1" as="geometry">
            <mxPoint x="1100" y="-160" as="targetPoint" />
          </mxGeometry>
        </mxCell>
        <mxCell id="91_PlL7ZlXS78ttUMX1h-34" value="vevő" style="rounded=0;whiteSpace=wrap;html=1;fillColor=#fad9d5;strokeColor=#ae4132;labelBackgroundColor=none;" vertex="1" parent="1">
          <mxGeometry x="1040" y="-80" width="120" height="60" as="geometry" />
        </mxCell>
        <mxCell id="91_PlL7ZlXS78ttUMX1h-36" value="" style="endArrow=classic;html=1;rounded=0;exitX=0.5;exitY=1;exitDx=0;exitDy=0;" edge="1" parent="1" source="91_PlL7ZlXS78ttUMX1h-30">
          <mxGeometry width="50" height="50" relative="1" as="geometry">
            <mxPoint x="770" y="270" as="sourcePoint" />
            <mxPoint x="1100" y="330" as="targetPoint" />
          </mxGeometry>
        </mxCell>
        <mxCell id="91_PlL7ZlXS78ttUMX1h-37" value="r.kód" style="ellipse;whiteSpace=wrap;html=1;fillColor=#d0cee2;strokeColor=#56517e;rounded=0;labelBackgroundColor=none;" vertex="1" parent="1">
          <mxGeometry x="1300" y="340" width="120" height="71.25" as="geometry" />
        </mxCell>
        <mxCell id="91_PlL7ZlXS78ttUMX1h-44" value="v.kód" style="ellipse;whiteSpace=wrap;html=1;align=center;fontStyle=4;fillColor=#d0cee2;strokeColor=#56517e;" vertex="1" parent="1">
          <mxGeometry x="1040" y="-200" width="120" height="60" as="geometry" />
        </mxCell>
        <mxCell id="91_PlL7ZlXS78ttUMX1h-45" value="név" style="ellipse;whiteSpace=wrap;html=1;fillColor=#d0cee2;strokeColor=#56517e;rounded=0;labelBackgroundColor=none;" vertex="1" parent="1">
          <mxGeometry x="1192.5" y="-200" width="130" height="60" as="geometry" />
        </mxCell>
        <mxCell id="91_PlL7ZlXS78ttUMX1h-48" value="" style="endArrow=none;html=1;rounded=0;entryX=0.5;entryY=1;entryDx=0;entryDy=0;exitX=0.5;exitY=0;exitDx=0;exitDy=0;" edge="1" parent="1" source="91_PlL7ZlXS78ttUMX1h-34" target="91_PlL7ZlXS78ttUMX1h-45">
          <mxGeometry width="50" height="50" relative="1" as="geometry">
            <mxPoint x="770" y="70" as="sourcePoint" />
            <mxPoint x="820" y="20" as="targetPoint" />
          </mxGeometry>
        </mxCell>
        <mxCell id="91_PlL7ZlXS78ttUMX1h-49" value="lakcím" style="ellipse;whiteSpace=wrap;html=1;fillColor=#d0cee2;strokeColor=#56517e;rounded=0;labelBackgroundColor=none;" vertex="1" parent="1">
          <mxGeometry x="890" y="-200" width="115" height="60" as="geometry" />
        </mxCell>
        <mxCell id="91_PlL7ZlXS78ttUMX1h-50" value="" style="endArrow=none;html=1;rounded=0;entryX=0.5;entryY=1;entryDx=0;entryDy=0;exitX=0.5;exitY=0;exitDx=0;exitDy=0;" edge="1" parent="1" source="91_PlL7ZlXS78ttUMX1h-34" target="91_PlL7ZlXS78ttUMX1h-49">
          <mxGeometry width="50" height="50" relative="1" as="geometry">
            <mxPoint x="770" y="60" as="sourcePoint" />
            <mxPoint x="820" y="10" as="targetPoint" />
          </mxGeometry>
        </mxCell>
        <mxCell id="91_PlL7ZlXS78ttUMX1h-51" value="város" style="ellipse;whiteSpace=wrap;html=1;fillColor=#e1d5e7;strokeColor=#9673a6;rounded=0;labelBackgroundColor=none;" vertex="1" parent="1">
          <mxGeometry x="760" y="-310" width="115" height="60" as="geometry" />
        </mxCell>
        <mxCell id="91_PlL7ZlXS78ttUMX1h-52" value="utca" style="ellipse;whiteSpace=wrap;html=1;fillColor=#e1d5e7;strokeColor=#9673a6;rounded=0;labelBackgroundColor=none;" vertex="1" parent="1">
          <mxGeometry x="890" y="-310" width="115" height="60" as="geometry" />
        </mxCell>
        <mxCell id="91_PlL7ZlXS78ttUMX1h-53" value="Házszám" style="ellipse;whiteSpace=wrap;html=1;fillColor=#e1d5e7;strokeColor=#9673a6;rounded=0;labelBackgroundColor=none;" vertex="1" parent="1">
          <mxGeometry x="1035" y="-310" width="115" height="60" as="geometry" />
        </mxCell>
        <mxCell id="91_PlL7ZlXS78ttUMX1h-54" value="" style="endArrow=none;html=1;rounded=0;entryX=0.5;entryY=1;entryDx=0;entryDy=0;exitX=0.5;exitY=0;exitDx=0;exitDy=0;" edge="1" parent="1" source="91_PlL7ZlXS78ttUMX1h-49" target="91_PlL7ZlXS78ttUMX1h-51">
          <mxGeometry width="50" height="50" relative="1" as="geometry">
            <mxPoint x="770" y="-40" as="sourcePoint" />
            <mxPoint x="820" y="-90" as="targetPoint" />
          </mxGeometry>
        </mxCell>
        <mxCell id="91_PlL7ZlXS78ttUMX1h-55" value="" style="endArrow=none;html=1;rounded=0;entryX=0.5;entryY=1;entryDx=0;entryDy=0;exitX=0.5;exitY=0;exitDx=0;exitDy=0;" edge="1" parent="1" source="91_PlL7ZlXS78ttUMX1h-49" target="91_PlL7ZlXS78ttUMX1h-52">
          <mxGeometry width="50" height="50" relative="1" as="geometry">
            <mxPoint x="770" y="-40" as="sourcePoint" />
            <mxPoint x="820" y="-90" as="targetPoint" />
          </mxGeometry>
        </mxCell>
        <mxCell id="91_PlL7ZlXS78ttUMX1h-56" value="" style="endArrow=none;html=1;rounded=0;entryX=0.5;entryY=1;entryDx=0;entryDy=0;exitX=0.5;exitY=0;exitDx=0;exitDy=0;" edge="1" parent="1" source="91_PlL7ZlXS78ttUMX1h-49" target="91_PlL7ZlXS78ttUMX1h-53">
          <mxGeometry width="50" height="50" relative="1" as="geometry">
            <mxPoint x="770" y="-40" as="sourcePoint" />
            <mxPoint x="820" y="-90" as="targetPoint" />
          </mxGeometry>
        </mxCell>
      </root>
    </mxGraphModel>
  </diagram>
</mxfile>
